<svg class="img-fluid" id="outputsvg" xmlns="http://www.w3.org/2000/svg" style="transform: matrix(0.85683, 0, 0, 0.85683, 0, 0); transform-origin: 50% 50%; cursor: move; max-height: 434.92px; transition: transform 200ms ease-in-out 0s;" width="1056" height="320" viewBox="0 0 10560 3200"><g id="l5RoK43K0caPyNrniF19s3y" fill="rgb(255,255,255)" style="transform: none;"><g style="transform: none;"><path id="pO3RFLrF2" d="M0 1600 l0 -1600 5280 0 5280 0 0 1600 0 1600 -5280 0 -5280 0 0 -1600z m1533 845 c65 -37 99 -79 174 -215 107 -190 115 -204 123 -215 5 -5 23 -37 41 -69 17 -33 41 -74 53 -92 12 -18 47 -79 79 -136 31 -56 62 -110 67 -118 133 -212 151 -270 106 -358 -51 -101 -127 -141 -277 -149 l-99 -6 0 -32 c0 -18 16 -77 36 -131 70 -194 71 -207 11 -296 -32 -47 -117 -108 -151 -108 -25 0 -73 36 -81 60 -6 19 -16 20 -146 20 l-139 0 -36 -40 c-20 -22 -45 -40 -56 -40 -32 0 -92 36 -130 78 -51 56 -69 121 -103 367 -24 179 -73 506 -84 559 -7 41 -6 58 12 104 41 108 136 172 255 172 l54 0 -6 98 c-3 53 -10 124 -15 157 -25 147 -25 207 -1 263 23 54 76 107 133 136 50 24 131 21 180 -9z m2553 -508 c66 -28 132 -87 163 -147 12 -23 29 -76 37 -117 14 -68 14 -81 -1 -151 -30 -137 -88 -213 -201 -264 -73 -33 -198 -32 -276 4 -160 74 -240 257 -192 441 15 60 64 147 100 178 97 85 247 107 370 56z m886 6 c111 -56 170 -178 172 -353 1 -197 -78 -323 -221 -354 -48 -11 -113 13 -159 59 -45 45 -66 92 -34 75 36 -19 131 -12 166 12 55 38 69 84 69 228 0 134 -8 161 -58 208 -23 21 -32 23 -110 20 l-85 -3 13 25 c48 91 159 128 247 83z m1498 8 c69 -21 133 -72 162 -131 15 -30 28 -61 28 -67 0 -9 -21 -13 -75 -13 l-74 0 -6 33 c-13 68 -46 87 -152 87 -127 0 -172 -43 -181 -171 l-4 -66 233 -7 c160 -5 236 -11 241 -19 18 -28 -1 -149 -31 -206 -24 -45 -85 -103 -135 -128 -74 -38 -188 -38 -266 -1 -103 49 -167 139 -200 281 -11 48 -11 70 0 125 32 165 90 234 238 283 61 20 155 20 222 0z m1328 -15 c26 -13 60 -37 75 -53 l28 -30 -81 5 c-124 7 -150 -10 -150 -103 0 -61 10 -84 42 -101 31 -16 139 -41 221 -51 l47 -6 0 72 c0 40 -5 81 -10 92 -10 17 -7 19 21 19 l31 0 -7 85 -7 85 70 0 70 0 5 -62 c11 -118 1 -359 -18 -428 -41 -156 -129 -225 -285 -224 -163 0 -291 86 -314 212 l-5 32 74 0 75 0 0 -34 c0 -69 85 -106 208 -92 76 8 92 28 92 112 0 77 7 72 -174 111 -125 26 -216 60 -252 94 -93 87 -54 239 73 282 58 20 108 15 171 -17z m922 23 c68 -15 121 -43 161 -86 117 -124 32 -253 -208 -313 -190 -47 -203 -55 -203 -122 0 -83 22 -98 143 -98 70 0 86 3 110 23 17 13 32 37 36 57 l7 35 64 0 c64 0 65 -1 68 -28 5 -39 -39 -110 -85 -138 -68 -41 -105 -51 -198 -52 -98 -1 -150 15 -220 69 -77 58 -98 172 -44 230 43 47 175 100 319 129 41 9 92 33 102 49 4 6 8 32 8 59 0 76 -18 87 -143 87 -129 0 -156 -14 -177 -90 l-10 -35 -64 5 c-36 3 -68 9 -72 12 -11 12 25 94 54 123 74 74 230 112 352 84z m733 -5 c26 -5 27 -8 27 -63 l0 -58 -66 -6 c-109 -8 -109 -8 -109 -245 l0 -197 55 -2 c30 -2 70 -5 88 -9 l33 -5 -3 -57 -3 -57 -45 -2 c-25 -2 -64 -5 -87 -9 l-42 -5 -3 -77 -3 -77 -37 -3 c-37 -3 -38 -2 -38 30 0 77 -63 151 -143 167 -60 12 -44 91 19 91 12 0 25 7 28 16 3 9 6 85 6 170 0 202 16 280 71 339 60 65 132 82 252 59z m-6908 -28 c13 -13 27 -41 31 -62 4 -21 5 -151 2 -289 -3 -137 -4 -265 -1 -282 5 -29 9 -33 38 -33 29 0 34 4 43 38 67 241 185 618 197 631 7 7 33 15 57 18 37 4 49 1 71 -18 27 -24 34 -43 107 -299 10 -36 39 -132 64 -215 25 -82 46 -156 46 -162 0 -8 15 -13 40 -13 l40 0 0 330 0 331 25 24 c29 30 64 32 96 6 l24 -19 3 -401 3 -401 -25 -25 c-23 -23 -32 -25 -116 -25 -50 0 -99 4 -109 10 -24 12 -31 33 -91 245 -117 422 -111 405 -145 405 -31 0 -65 -28 -65 -53 0 -6 -32 -120 -70 -252 -39 -132 -75 -257 -81 -277 -18 -68 -39 -78 -155 -78 -87 0 -105 3 -128 21 l-26 20 0 404 0 404 26 20 c35 28 69 26 99 -3z m2055 -91 c0 -103 2 -115 18 -115 15 0 17 -10 14 -103 -2 -71 1 -116 11 -145 14 -40 14 -42 -5 -42 -18 0 -19 -7 -12 -215 l7 -215 -86 0 -87 0 0 475 0 475 70 0 70 0 0 -115z m884 84 c8 -40 8 -632 0 -653 -9 -23 -159 -23 -168 0 -3 9 -6 159 -6 334 0 175 3 325 6 334 5 13 22 16 84 16 l78 0 6 -31z m344 19 c17 -17 17 -909 0 -926 -18 -18 -133 -15 -153 4 -14 14 -15 64 -13 465 3 387 5 451 18 459 22 14 134 12 148 -2z m1160 0 c8 -8 12 -58 12 -159 0 -107 3 -150 13 -156 6 -4 84 -10 172 -11 90 -2 165 -8 173 -14 15 -13 16 -72 2 -99 -10 -18 -23 -19 -179 -19 -145 0 -170 -2 -175 -16 -3 -9 -6 -69 -6 -134 0 -108 2 -120 19 -130 12 -6 95 -10 199 -10 205 0 205 0 200 -77 l-3 -48 -280 -2 c-166 -2 -286 1 -295 7 -13 8 -15 67 -15 435 0 368 2 427 15 435 22 14 134 12 148 -2z m-1543 -822 c98 -41 45 -148 -66 -133 -75 10 -105 70 -56 114 39 36 70 41 122 19z"></path><path id="puQKMnKcN" d="M3858 1845 c-14 -8 -37 -32 -50 -52 -20 -34 -23 -52 -27 -172 -3 -152 6 -194 51 -238 27 -26 35 -28 115 -28 l85 0 32 37 c44 51 56 97 56 218 0 123 -13 172 -57 217 -32 31 -37 33 -106 33 -43 -1 -83 -7 -99 -15z"></path><path id="p1735UNyau" d="M6180 1501 c0 -56 15 -95 50 -126 19 -17 36 -20 110 -20 74 0 91 3 110 20 34 31 50 69 50 120 l0 45 -107 0 c-60 0 -132 3 -160 6 l-53 7 0 -52z"></path></g></g><g id="l3zNELoLIPegEAqm67zmjGg" fill="rgb(9,9,8)" style="transform: none;"><g style="transform: none;"><path id="p1CmqBQVnr" d="M1323 2484 c-57 -29 -110 -82 -133 -136 -20 -47 -22 -62 -16 -158 3 -58 10 -132 16 -165 5 -33 13 -90 16 -127 l7 -68 -55 0 c-123 0 -215 -64 -258 -181 -22 -57 -22 -66 -12 -133 18 -105 70 -455 87 -581 34 -246 52 -311 103 -367 48 -53 100 -78 160 -78 45 0 53 4 86 40 l36 40 109 0 c100 0 110 -2 116 -20 11 -34 59 -60 111 -60 97 0 199 95 225 207 14 60 11 72 -52 246 -21 60 -39 110 -39 111 0 2 44 6 99 9 150 8 226 48 277 149 29 57 33 155 8 214 -13 32 -73 139 -114 204 -5 8 -36 62 -67 118 -32 57 -67 118 -79 136 -12 18 -36 59 -53 92 -18 32 -36 64 -41 69 -8 11 -16 25 -123 215 -111 199 -162 240 -299 240 -55 0 -94 -6 -115 -16z m178 -127 c31 -21 72 -71 103 -127 7 -14 37 -68 66 -120 28 -52 56 -99 60 -105 4 -5 18 -28 30 -50 24 -44 73 -127 236 -405 93 -159 108 -191 107 -228 0 -33 -6 -50 -29 -73 -53 -57 -76 -63 -239 -69 l-150 -5 1 -55 c0 -39 13 -89 43 -170 73 -196 75 -205 62 -238 -7 -16 -28 -45 -47 -63 l-35 -34 -29 35 -29 35 -162 3 c-89 2 -173 1 -187 -3 -14 -3 -38 -20 -54 -37 l-29 -31 -38 37 c-44 43 -47 54 -81 301 -21 153 -24 172 -41 285 -5 36 -14 92 -19 125 -28 190 -30 216 -16 249 8 19 31 46 52 62 35 27 44 29 146 33 96 3 110 5 119 23 11 20 6 76 -21 273 -35 249 -35 263 1 310 52 65 121 82 180 42z"></path><path id="po0PRxYTE" d="M1345 2320 c-27 -28 -28 -31 -22 -107 8 -94 23 -215 37 -303 26 -160 26 -153 -13 -192 l-35 -36 -111 -4 c-99 -3 -112 -6 -135 -27 -35 -33 -34 -68 9 -348 19 -125 42 -275 50 -333 14 -95 22 -150 40 -262 6 -36 8 -38 45 -38 25 0 52 9 76 25 35 24 44 25 183 25 l147 0 34 -30 c46 -39 96 -41 110 -4 18 46 11 87 -41 234 -76 219 -74 209 -52 239 37 51 75 61 223 61 74 0 140 4 146 8 50 34 58 117 18 189 -52 94 -119 209 -166 286 -26 43 -48 80 -48 83 0 2 -32 59 -71 127 -40 67 -108 185 -152 262 -43 77 -88 148 -99 158 -15 12 -37 17 -82 17 -56 0 -65 -3 -91 -30z m275 -425 c0 -2 37 -66 178 -310 105 -180 132 -229 132 -237 0 -5 -51 -8 -114 -8 -163 0 -222 -25 -267 -112 -32 -62 -26 -144 20 -275 l39 -113 -168 0 -169 0 -6 48 c-3 26 -10 75 -15 110 -22 138 -31 200 -40 252 -5 30 -14 96 -21 145 -6 50 -15 107 -19 128 l-8 37 94 0 c125 0 187 28 224 100 22 44 27 161 11 247 -5 26 -15 89 -21 138 -6 50 -14 101 -16 115 -3 14 33 -40 80 -119 47 -78 86 -144 86 -146z"></path><path id="prjSNjSg6" d="M3878 1995 c-120 -24 -190 -67 -243 -150 -103 -160 -83 -418 41 -542 56 -55 110 -81 203 -98 161 -28 318 34 388 152 30 51 63 177 63 240 0 61 -26 175 -51 223 -55 104 -141 155 -314 184 -11 2 -50 -2 -87 -9z m155 -198 c41 -42 57 -94 57 -187 0 -91 -15 -140 -56 -188 -29 -34 -36 -37 -87 -37 -47 0 -60 4 -85 28 -43 42 -55 89 -51 208 4 87 8 110 28 142 28 46 63 66 118 67 35 0 48 -6 76 -33z"></path><path id="pH0WPtROc" d="M4825 1989 c-90 -28 -129 -74 -166 -196 -6 -24 -16 -43 -21 -43 -4 0 -8 52 -8 115 l0 115 -100 0 -100 0 0 -505 0 -505 119 0 120 0 -4 32 c-9 71 -14 401 -6 392 4 -5 14 -25 21 -44 31 -81 77 -122 161 -144 98 -25 215 20 268 102 51 80 66 141 66 277 0 242 -75 371 -238 409 -48 11 -62 11 -112 -5z m64 -214 c39 -45 46 -71 46 -175 0 -101 -19 -154 -69 -188 -41 -28 -84 -28 -126 1 -53 35 -73 79 -78 168 -3 59 0 90 14 129 26 73 61 100 129 100 48 0 56 -3 84 -35z"></path><path id="p163uCPXMU" d="M6315 2003 c-55 -7 -139 -34 -188 -60 -74 -41 -115 -104 -141 -217 -47 -201 30 -411 177 -487 21 -11 72 -27 112 -34 122 -24 244 12 317 93 45 50 57 72 74 137 15 54 18 173 6 192 -5 8 -81 14 -241 19 l-233 7 6 40 c15 89 66 137 148 137 79 0 111 -24 122 -94 3 -16 6 -30 8 -31 2 -2 49 -1 106 2 l102 6 0 37 c0 41 -21 99 -51 142 -47 65 -220 125 -324 111z m155 -509 c0 -22 -25 -66 -50 -89 -31 -28 -129 -28 -160 0 -26 24 -50 67 -50 92 0 17 10 18 130 15 107 -3 130 -6 130 -18z"></path><path id="pDJVUw5i8" d="M7675 2004 c-112 -26 -178 -71 -195 -134 -24 -86 -4 -186 47 -232 35 -32 128 -66 249 -91 166 -35 174 -39 174 -80 0 -49 -22 -74 -74 -81 -90 -14 -161 26 -168 94 l-3 35 -100 -3 c-55 -2 -104 -7 -109 -12 -12 -11 18 -123 44 -166 43 -69 114 -107 241 -129 66 -12 89 -12 141 -1 77 17 93 23 141 55 84 55 117 162 124 406 3 94 2 203 -2 243 l-7 72 -100 0 -100 0 3 -85 c4 -74 2 -85 -13 -85 -10 0 -19 11 -23 31 -9 42 -59 96 -115 124 -43 22 -133 44 -155 39z m191 -190 c46 -22 84 -87 84 -143 0 -37 -3 -42 -17 -36 -10 3 -50 12 -90 20 -121 23 -156 55 -138 128 12 46 95 62 161 31z"></path><path id="p4H7p4Q1B" d="M8543 1995 c-80 -14 -166 -51 -202 -85 -51 -49 -87 -197 -48 -197 6 0 51 -3 99 -7 l87 -7 10 38 c21 74 51 93 148 93 60 0 77 -4 93 -20 21 -21 25 -46 12 -66 -10 -16 -61 -40 -102 -49 -141 -28 -276 -82 -317 -127 -27 -29 -44 -102 -36 -154 17 -114 100 -182 254 -209 79 -14 153 -7 239 22 86 29 144 99 155 188 10 70 -1 77 -111 73 l-88 -3 -7 -35 c-11 -51 -52 -80 -116 -80 -64 0 -100 15 -107 46 -14 54 11 68 197 114 181 46 267 123 267 241 0 70 -58 153 -135 190 -33 16 -190 51 -214 48 -3 0 -38 -7 -78 -14z"></path><path id="pUS23GeMF" d="M9263 1984 c-37 -12 -64 -29 -92 -59 -55 -59 -71 -137 -71 -339 0 -85 -3 -161 -6 -170 -3 -9 -16 -16 -28 -16 -44 0 -57 -21 -54 -85 3 -58 4 -59 35 -66 79 -16 143 -90 143 -166 0 -28 4 -33 33 -38 18 -4 49 -3 68 2 l34 9 3 77 3 76 42 5 c23 4 62 7 87 9 l45 2 3 87 3 87 -33 5 c-18 4 -58 7 -88 9 l-55 2 0 167 c0 160 1 169 22 190 18 18 34 22 85 22 l63 1 3 91 c3 106 10 100 -118 109 -53 3 -91 0 -127 -11z"></path><path id="pAeTsKcJc" d="M5395 1982 c-64 -2 -102 -7 -107 -15 -9 -13 -11 -701 -2 -732 5 -19 13 -20 111 -18 75 1 108 5 114 15 14 22 10 723 -4 739 -9 11 -37 13 -112 11z"></path><path id="p1DRBREK8X" d="M2416 1959 l-26 -20 0 -434 0 -434 26 -20 c24 -19 40 -21 158 -21 150 0 166 7 185 78 6 20 42 145 81 277 38 132 70 246 70 252 0 7 8 22 17 32 16 19 18 16 49 -87 17 -59 53 -183 79 -277 26 -93 52 -185 57 -203 18 -66 33 -72 173 -72 121 0 127 1 151 25 l25 25 -3 431 -3 431 -24 19 c-36 30 -124 27 -156 -6 l-25 -24 0 -331 c0 -213 -4 -330 -10 -330 -5 0 -10 6 -10 13 0 6 -21 80 -46 162 -25 83 -54 179 -64 215 -93 325 -90 320 -193 320 -34 0 -73 -6 -87 -13 -25 -13 -34 -39 -164 -477 -19 -63 -41 -135 -49 -160 -14 -42 -15 -43 -17 -15 -2 17 -2 152 0 300 3 345 -3 365 -118 365 -35 0 -57 -6 -76 -21z"></path><path id="pWG1o3bMB" d="M5650 1970 c-13 -8 -15 -75 -18 -489 -2 -428 -1 -481 13 -495 20 -20 194 -23 213 -4 17 17 17 969 0 986 -14 14 -186 16 -208 2z"></path><path id="p1AsUdSWWU" d="M6807 1968 c-16 -12 -17 -51 -14 -466 2 -390 4 -454 17 -462 9 -6 140 -9 325 -7 l310 2 3 81 c2 58 -1 84 -11 92 -8 7 -77 12 -192 12 -99 1 -188 6 -197 11 -15 8 -18 24 -18 99 0 48 3 95 6 104 5 14 30 16 175 16 156 0 169 1 179 19 14 28 13 146 -2 159 -8 6 -83 12 -173 14 -88 1 -166 7 -172 11 -10 6 -13 49 -13 156 0 101 -4 151 -12 159 -17 17 -189 16 -211 0z"></path><path id="pfzc55wpr" d="M5325 1151 c-41 -17 -60 -50 -59 -103 1 -72 24 -91 114 -96 111 -7 150 21 150 104 0 48 -15 73 -55 90 -37 15 -118 18 -150 5z"></path></g></g><g id="lEwpXlzymfryODY5WzJmKG" fill="rgb(255,186,0)" style="transform: none;"><g style="transform: none;"><path id="pR0Nwd9p9" d="M1421 2256 c-9 -11 -12 -30 -8 -59 7 -46 23 -155 38 -257 23 -149 23 -203 0 -247 -38 -76 -99 -103 -228 -103 l-96 0 6 -47 c4 -27 11 -77 17 -113 6 -36 15 -96 20 -135 5 -38 14 -99 20 -135 6 -36 15 -94 20 -130 5 -36 14 -97 19 -135 13 -93 19 -108 40 -98 9 4 100 9 203 11 l186 3 -49 142 c-54 157 -58 190 -30 245 46 89 103 112 282 112 78 0 129 4 129 10 0 11 -48 99 -162 295 -149 258 -178 308 -178 310 0 9 -173 295 -192 319 -21 25 -25 27 -37 12z"></path></g></g><g id="l4KCh7TgkwzrBArutEXg7oK" fill="rgb(255,91,0)" style="transform: none;"><g style="transform: none;"><path id="pDHuCUHw0" d="M1391 2410 c-42 -10 -80 -37 -108 -80 -32 -45 -31 -85 7 -360 25 -179 27 -201 16 -215 -8 -9 -43 -14 -117 -17 -99 -3 -109 -5 -144 -32 -67 -52 -77 -114 -45 -306 5 -30 14 -89 20 -130 6 -41 16 -102 21 -135 5 -33 18 -127 29 -210 34 -244 37 -258 79 -299 20 -20 50 -38 67 -42 27 -5 34 -2 52 24 34 47 64 54 217 50 132 -3 137 -4 156 -28 49 -62 47 -60 76 -49 65 24 113 93 113 161 0 45 -2 50 -71 238 -23 63 -42 126 -43 140 l-1 25 150 5 c163 6 185 12 240 70 28 29 30 37 30 103 l0 72 -109 185 c-134 227 -207 353 -234 402 -12 20 -32 54 -45 75 -14 21 -39 66 -56 98 -57 110 -110 192 -138 217 -24 22 -87 48 -110 47 -10 -1 -33 -5 -52 -9z m97 -107 c11 -10 56 -81 99 -158 44 -77 112 -195 152 -262 39 -68 71 -125 71 -127 0 -3 22 -40 48 -83 47 -77 114 -192 166 -287 30 -54 29 -78 -4 -114 -20 -21 -29 -22 -156 -22 -148 0 -186 -9 -222 -55 -29 -37 -28 -88 4 -178 75 -208 94 -276 84 -302 l-10 -26 -39 31 -39 31 -172 0 c-174 -1 -186 -4 -242 -43 -24 -17 -28 -10 -39 68 -36 246 -51 346 -85 567 l-38 248 27 27 c26 25 33 27 138 30 111 4 111 4 145 38 30 31 34 41 34 89 0 30 -4 76 -9 102 -10 50 -22 136 -42 291 l-12 93 28 29 c33 35 81 40 113 13z"></path><path id="p1A6Oz13VF" d="M7960 1800 c0 -5 7 -10 15 -10 8 0 15 5 15 10 0 6 -7 10 -15 10 -8 0 -15 -4 -15 -10z"></path></g></g></svg>